HIERARCHY
ROOT Hips
{
	OFFSET -0.179506 -22.333345 2.821913
	CHANNELS 6 Xposition Yposition Zposition Zrotation Yrotation Xrotation 
	JOINT LeftUpLeg
	{
		OFFSET 6.951974 -9.140623 -0.681533
		CHANNELS 3 Zrotation Yrotation Xrotation
		JOINT LeftLeg
		{
			OFFSET 3.427654 -37.519855 -0.449580
			CHANNELS 3 Zrotation Yrotation Xrotation
			JOINT LeftFoot
			{
				OFFSET -1.359570 -39.796059 -4.369333
				CHANNELS 3 Zrotation Yrotation Xrotation
				JOINT LeftToe
				{
					OFFSET 2.635814 -5.579078 11.928840
					CHANNELS 3 Zrotation Yrotation Xrotation
					End Site
					{
						OFFSET 0.000000 0.000000 0.000000
					}
				}
			}
		}
	}
	JOINT RightUpLeg
	{
		OFFSET -6.767048 -9.052170 -0.431982
		CHANNELS 3 Zrotation Yrotation Xrotation
		JOINT RightLeg
		{
			OFFSET -3.829005 -38.256897 -0.885003
			CHANNELS 3 Zrotation Yrotation Xrotation
			JOINT RightFoot
			{
				OFFSET 1.577377 -39.841461 -4.231180
				CHANNELS 3 Zrotation Yrotation Xrotation
				JOINT RightToe
				{
					OFFSET -2.537174 -4.814398 12.334795
					CHANNELS 3 Zrotation Yrotation Xrotation
					End Site
					{
						OFFSET 0.000000 0.000000 0.000000
					}
				}
			}
		}
	}
	JOINT Spine
	{
		OFFSET -0.253288 10.896323 -2.669631
		CHANNELS 3 Zrotation Yrotation Xrotation
		JOINT Spine1
		{
			OFFSET 0.548704 13.518043 0.109247
			CHANNELS 3 Zrotation Yrotation Xrotation
			JOINT Spine2
			{
				OFFSET 0.145701 5.292222 2.542457
				CHANNELS 3 Zrotation Yrotation Xrotation
				JOINT Neck
				{
					OFFSET -0.277840 21.387037 -4.285703
					CHANNELS 3 Zrotation Yrotation Xrotation
					JOINT Head
					{
						OFFSET 0.515184 6.496960 5.134897
						CHANNELS 3 Zrotation Yrotation Xrotation
						End Site
						{
							OFFSET 0.000000 0.000000 0.000000
						}
					}
				}
				JOINT LeftShoulder
				{
					OFFSET 7.884473 12.174932 -3.408961
					CHANNELS 3 Zrotation Yrotation Xrotation
					JOINT LeftArm
					{
						OFFSET 9.097692 3.046888 -0.886815
						CHANNELS 3 Zrotation Yrotation Xrotation
						JOINT LeftForeArm
						{
							OFFSET 25.961220 -1.277207 -2.745643
							CHANNELS 3 Zrotation Yrotation Xrotation
							JOINT LeftHand
							{
								OFFSET 24.923361 0.898606 -0.117091
								CHANNELS 3 Zrotation Yrotation Xrotation
								End Site
								{
									OFFSET 0.000000 0.000000 0.000000
								}
							}
						}
					}
				}
				JOINT RightShoulder
				{
					OFFSET -8.175920 11.883285 -3.861528
					CHANNELS 3 Zrotation Yrotation Xrotation
					JOINT RightArm
					{
						OFFSET -9.601238 3.255117 -0.914307
						CHANNELS 3 Zrotation Yrotation Xrotation
						JOINT RightForeArm
						{
							OFFSET -25.374195 -1.332924 -2.140099
							CHANNELS 3 Zrotation Yrotation Xrotation
							JOINT RightHand
							{
								OFFSET -25.529810 0.777228 -0.555919
								CHANNELS 3 Zrotation Yrotation Xrotation
								End Site
								{
									OFFSET 0.000000 0.000000 0.000000
								}
							}
						}
					}
				}
			}
		}
	}
}
MOTION
Frames: 8
Frame Time: 0.033333
-0.179506 110.566986 2.821913 -172.871345 -62.736939 167.342223 -3.029876 1.230690 7.908465 -1.573432 -15.618541 3.269191 0.526103 11.856268 -11.450320 5.210072 -0.537208 0.831021 -1.870061 3.069646 -21.437619 1.407551 -0.101060 47.233616 3.895491 -10.233733 -4.054342 1.319822 0.540434 1.283812 -0.974572 -1.822988 12.242813 4.282612 -4.015497 -1.752546 -0.476596 -2.167723 0.013743 -0.060321 -10.340884 1.662198 3.914860 -13.858188 -0.761621 -10.741601 -7.503281 -4.443917 -46.487897 -31.775838 9.716713 4.313275 -28.339801 1.208191 3.977231 -5.928188 6.398864 14.775737 0.514913 -3.120539 43.005737 -3.623939 11.044009 -1.280053 10.866966 -0.107656 7.855493 0.196008 4.823442 
-2.339880 110.498154 2.663514 -171.345114 -63.411456 166.291721 -2.666226 1.918338 10.242124 -0.797022 -16.231739 0.541727 0.199181 11.022185 -11.437415 4.853113 -0.601856 0.805855 -1.180634 3.413266 -23.440862 1.102170 -1.915192 42.889682 4.376498 -10.584775 -5.128665 1.106612 0.652832 1.259666 -1.143637 -2.778675 12.592464 4.353260 -3.993701 -2.131763 -0.262236 -2.507334 0.292261 -0.008614 -10.761663 1.375268 4.430053 -13.750773 -1.368149 -10.333149 -7.917854 -5.369651 -46.491925 -34.134831 10.000538 5.904018 -32.596454 -0.434332 3.665585 -7.067266 5.981069 15.109488 -0.377892 -3.047793 41.954911 -4.537876 11.253385 -1.012509 10.999479 -0.553079 8.290454 0.175644 5.815054 
-4.332653 110.324249 2.366081 -170.175103 -64.135581 165.399578 -2.356510 2.362681 12.164559 -0.342315 -16.500237 -1.098905 0.088151 10.123913 -11.938208 4.361388 -0.666823 0.831074 -0.514289 3.526062 -24.287048 0.875591 -3.391406 37.296893 4.849643 -10.473212 -5.753685 1.054239 0.664729 1.138666 -1.363350 -3.358480 12.918415 4.492879 -4.055356 -2.088379 -0.120800 -2.787483 0.436482 -0.023736 -11.056151 1.212870 4.968617 -13.886444 -2.045865 -9.647909 -8.424423 -6.139843 -46.903450 -36.058032 10.457944 7.312766 -36.952970 -1.190401 3.768989 -7.925095 5.401556 15.115797 -1.152469 -2.938153 41.467838 -5.374255 11.328916 -1.177496 11.460448 -0.265542 8.367747 -0.152708 6.498591 
-6.064294 110.033951 1.894793 -169.894792 -64.173998 165.301340 -2.469814 2.428353 13.648236 0.028219 -16.752174 -1.972748 0.517900 9.993477 -12.852993 3.882056 -0.808954 0.820961 0.133928 3.883640 -24.510872 0.628121 -3.529008 30.335522 5.609055 -10.535462 -5.983834 1.061286 0.650117 1.017144 -1.785560 -3.757993 13.292784 4.563605 -4.035459 -2.087452 -0.109059 -3.006850 0.590126 -0.105630 -11.432695 0.895825 5.456325 -13.684598 -2.799507 -9.191846 -8.504220 -6.589244 -47.256945 -37.373614 11.119971 8.596035 -40.405168 -2.002731 3.959557 -8.464455 4.587693 15.199016 -1.909423 -2.848586 41.496121 -6.032833 11.643429 -1.668752 11.647829 -0.162041 8.467464 -0.684814 6.730514 
-7.393040 109.668472 1.485498 -170.586228 -64.038382 165.765704 -2.851580 2.824233 15.320165 0.367907 -16.926757 -3.046426 1.053867 9.685343 -13.574261 3.224498 -0.893694 0.794926 0.876959 4.031126 -23.969670 0.113783 -3.371929 23.250742 6.509167 -10.422879 -5.502316 1.143817 0.624204 0.835095 -2.406978 -4.027267 13.889436 4.560833 -3.984058 -2.409059 -0.079001 -3.244579 0.901415 -0.044829 -11.899759 0.733857 5.938861 -13.394098 -3.488823 -9.065479 -8.522967 -6.882035 -47.909300 -38.195173 11.842847 9.179824 -43.704721 -1.825490 4.001539 -8.930918 4.361788 15.304628 -2.518678 -2.821701 41.722375 -6.632830 11.752894 -1.929610 11.585378 -0.419063 8.778672 -1.366771 7.264465 
-8.731740 109.261612 0.767730 -171.730429 -64.123452 166.738603 -3.303087 3.174063 16.669651 0.592912 -17.000913 -3.499186 1.353109 9.287697 -14.645536 2.733148 -0.916244 0.773777 1.746903 3.982524 -23.224806 -0.481863 -3.384752 16.621216 7.342333 -10.253341 -5.404787 1.186680 0.543965 0.785681 -2.934405 -4.220504 14.152204 4.603345 -4.170444 -2.465438 -0.041499 -3.414281 1.116636 -0.116180 -12.229053 0.402984 6.327480 -12.851570 -4.198457 -9.055644 -8.747245 -7.016940 -48.840696 -38.659567 12.748436 8.979261 -46.267784 -0.892467 3.754891 -9.170263 3.934532 15.438072 -2.987860 -2.771407 41.996672 -7.112807 11.806685 -2.153644 11.254569 -1.175807 9.060095 -1.864751 7.744363 
-10.186570 108.835922 -0.149127 -172.646533 -63.990571 167.619711 -3.450792 3.682501 18.034275 0.727526 -17.134631 -3.958752 1.570379 8.999922 -15.646098 2.549289 -0.906915 0.757263 2.337027 3.828927 -23.059951 -0.822245 -3.610727 12.210359 8.068933 -10.359767 -5.190970 1.136886 0.543723 0.822439 -3.341684 -4.473635 14.146067 4.629083 -4.341468 -2.590978 -0.097498 -3.709285 1.343652 -0.143316 -12.331714 0.015134 6.435890 -12.578305 -4.699425 -9.316527 -8.742450 -6.847410 -49.684800 -38.693964 13.703779 7.296956 -47.237260 1.681625 3.495827 -9.361839 3.808521 15.777199 -3.395238 -2.882177 42.315107 -7.443189 11.968647 -2.074018 10.811126 -1.483273 8.973078 -2.163193 7.922727 
-12.001615 108.408325 -1.080108 -173.531553 -64.005043 168.479649 -3.643501 4.132976 19.255865 0.621560 -17.160703 -3.697799 1.746216 8.619909 -16.598787 2.367985 -0.893186 0.711429 2.658055 3.686390 -22.823706 -1.187080 -3.891367 9.864469 8.340465 -10.610836 -4.833013 1.140845 0.469546 0.859110 -3.610990 -4.672099 13.901879 4.659233 -4.515688 -2.446682 -0.234718 -3.915439 1.353881 -0.068244 -12.613772 -0.030978 6.307685 -12.485542 -4.918552 -9.756134 -8.747093 -6.411857 -51.493800 -38.363910 15.157586 4.576196 -46.844552 5.026203 2.887466 -9.626060 4.150198 15.979115 -3.659591 -3.002988 42.945109 -7.660415 12.133972 -2.122868 10.251960 -2.131292 9.058941 -2.166438 8.087240 
